<svg id="iconce.com" width="256" height="256" viewBox="0 0 256 256" fill="none" xmlns="http://www.w3.org/2000/svg" xmlns:xlink="http://www.w3.org/1999/xlink"><defs><linearGradient id="r5" gradientUnits="userSpaceOnUse" gradientTransform="rotate(45)" style="transform-origin:center center"><stop stop-color="#6B8E23"/><stop offset="1" stop-color="#FFD700"/></linearGradient><radialGradient id="r6" cx="0" cy="0" r="1" gradientUnits="userSpaceOnUse" gradientTransform="translate(256) rotate(90) scale(512)"><stop stop-color="white"/><stop offset="1" stop-color="white" stop-opacity="0"/></radialGradient><mask id="mask"><rect id="r4" width="256" height="256" fill="white"/><svg xmlns="http://www.w3.org/2000/svg" width="128" height="128" viewBox="0 0 24 24" fill="black" stroke="black" stroke-width="2" stroke-linecap="round" stroke-linejoin="round" class="text-white" alignment-baseline="middle" x="64" y="64"><rect width="8" height="4" x="8" y="2" rx="1" ry="1"/><path d="M10.42 12.61a2.1 2.1 0 1 1 2.97 2.97L7.95 21 4 22l.99-3.95 5.43-5.44Z"/><path d="M16 4h2a2 2 0 0 1 2 2v14a2 2 0 0 1-2 2h-5.5"/><path d="M4 13.5V6a2 2 0 0 1 2-2h2"/></svg></mask></defs><rect id="r4" width="244" height="244" x="6" y="6" rx="64" fill="url(#r5)" stroke="#FFFFFF" stroke-width="12" stroke-opacity="100%" paint-order="stroke" mask="url(#mask)"/><svg xmlns="http://www.w3.org/2000/svg" width="128" height="128" viewBox="0 0 24 24" fill="none" stroke="#FFFFFF" stroke-width="2" stroke-linecap="round" stroke-linejoin="round" class="text-white" alignment-baseline="middle" x="64" y="64"><rect width="8" height="4" x="8" y="2" rx="1" ry="1"/><path d="M10.42 12.61a2.1 2.1 0 1 1 2.97 2.97L7.95 21 4 22l.99-3.95 5.43-5.44Z"/><path d="M16 4h2a2 2 0 0 1 2 2v14a2 2 0 0 1-2 2h-5.5"/><path d="M4 13.5V6a2 2 0 0 1 2-2h2"/></svg></svg>